<mxfile host="Electron" agent="Mozilla/5.0 (X11; Linux x86_64) AppleWebKit/537.36 (KHTML, like Gecko) draw.io/26.0.4 Chrome/128.0.6613.186 Electron/32.2.5 Safari/537.36" version="26.0.4" pages="2">
  <diagram name="Page-1" id="FxilYJNAX6_qmC1htweW">
    <mxGraphModel dx="1465" dy="385" grid="1" gridSize="10" guides="1" tooltips="1" connect="1" arrows="1" fold="1" page="1" pageScale="1" pageWidth="827" pageHeight="1169" math="0" shadow="0">
      <root>
        <mxCell id="0" />
        <mxCell id="1" parent="0" />
        <mxCell id="I--xkWk148IhXR5eMrtj-1" value="Room" style="swimlane;fontStyle=1;align=center;verticalAlign=top;childLayout=stackLayout;horizontal=1;startSize=26;horizontalStack=0;resizeParent=1;resizeParentMax=0;resizeLast=0;collapsible=1;marginBottom=0;whiteSpace=wrap;html=1;" vertex="1" parent="1">
          <mxGeometry x="463" y="40" width="320" height="290" as="geometry" />
        </mxCell>
        <mxCell id="I--xkWk148IhXR5eMrtj-14" value="+ id: UUID String" style="text;strokeColor=none;fillColor=none;align=left;verticalAlign=top;spacingLeft=4;spacingRight=4;overflow=hidden;rotatable=0;points=[[0,0.5],[1,0.5]];portConstraint=eastwest;whiteSpace=wrap;html=1;" vertex="1" parent="I--xkWk148IhXR5eMrtj-1">
          <mxGeometry y="26" width="320" height="22" as="geometry" />
        </mxCell>
        <mxCell id="YRBV2urnZXZ1e8K0LFWp-9" value="+ hotel: Hotel" style="text;strokeColor=none;fillColor=none;align=left;verticalAlign=top;spacingLeft=4;spacingRight=4;overflow=hidden;rotatable=0;points=[[0,0.5],[1,0.5]];portConstraint=eastwest;whiteSpace=wrap;html=1;" vertex="1" parent="I--xkWk148IhXR5eMrtj-1">
          <mxGeometry y="48" width="320" height="22" as="geometry" />
        </mxCell>
        <mxCell id="I--xkWk148IhXR5eMrtj-56" value="+ roomNumber: String" style="text;strokeColor=none;fillColor=none;align=left;verticalAlign=top;spacingLeft=4;spacingRight=4;overflow=hidden;rotatable=0;points=[[0,0.5],[1,0.5]];portConstraint=eastwest;whiteSpace=wrap;html=1;" vertex="1" parent="I--xkWk148IhXR5eMrtj-1">
          <mxGeometry y="70" width="320" height="22" as="geometry" />
        </mxCell>
        <mxCell id="I--xkWk148IhXR5eMrtj-15" value="+ roomType: RoomType enum(single, double &amp;amp; suite)" style="text;strokeColor=none;fillColor=none;align=left;verticalAlign=top;spacingLeft=4;spacingRight=4;overflow=hidden;rotatable=0;points=[[0,0.5],[1,0.5]];portConstraint=eastwest;whiteSpace=wrap;html=1;" vertex="1" parent="I--xkWk148IhXR5eMrtj-1">
          <mxGeometry y="92" width="320" height="20" as="geometry" />
        </mxCell>
        <mxCell id="I--xkWk148IhXR5eMrtj-55" value="+ rate: String" style="text;strokeColor=none;fillColor=none;align=left;verticalAlign=top;spacingLeft=4;spacingRight=4;overflow=hidden;rotatable=0;points=[[0,0.5],[1,0.5]];portConstraint=eastwest;whiteSpace=wrap;html=1;" vertex="1" parent="I--xkWk148IhXR5eMrtj-1">
          <mxGeometry y="112" width="320" height="22" as="geometry" />
        </mxCell>
        <mxCell id="I--xkWk148IhXR5eMrtj-48" value="+ availability: boolean" style="text;strokeColor=none;fillColor=none;align=left;verticalAlign=top;spacingLeft=4;spacingRight=4;overflow=hidden;rotatable=0;points=[[0,0.5],[1,0.5]];portConstraint=eastwest;whiteSpace=wrap;html=1;" vertex="1" parent="I--xkWk148IhXR5eMrtj-1">
          <mxGeometry y="134" width="320" height="22" as="geometry" />
        </mxCell>
        <mxCell id="I--xkWk148IhXR5eMrtj-47" value="+ isUnderMaintainence: boolean" style="text;strokeColor=none;fillColor=none;align=left;verticalAlign=top;spacingLeft=4;spacingRight=4;overflow=hidden;rotatable=0;points=[[0,0.5],[1,0.5]];portConstraint=eastwest;whiteSpace=wrap;html=1;" vertex="1" parent="I--xkWk148IhXR5eMrtj-1">
          <mxGeometry y="156" width="320" height="22" as="geometry" />
        </mxCell>
        <mxCell id="I--xkWk148IhXR5eMrtj-3" value="" style="line;strokeWidth=1;fillColor=none;align=left;verticalAlign=middle;spacingTop=-1;spacingLeft=3;spacingRight=3;rotatable=0;labelPosition=right;points=[];portConstraint=eastwest;strokeColor=inherit;" vertex="1" parent="I--xkWk148IhXR5eMrtj-1">
          <mxGeometry y="178" width="320" height="8" as="geometry" />
        </mxCell>
        <mxCell id="I--xkWk148IhXR5eMrtj-4" value="+ book(): boolean" style="text;strokeColor=none;fillColor=none;align=left;verticalAlign=top;spacingLeft=4;spacingRight=4;overflow=hidden;rotatable=0;points=[[0,0.5],[1,0.5]];portConstraint=eastwest;whiteSpace=wrap;html=1;" vertex="1" parent="I--xkWk148IhXR5eMrtj-1">
          <mxGeometry y="186" width="320" height="26" as="geometry" />
        </mxCell>
        <mxCell id="I--xkWk148IhXR5eMrtj-54" value="+ cancelBooking(): boolean" style="text;strokeColor=none;fillColor=none;align=left;verticalAlign=top;spacingLeft=4;spacingRight=4;overflow=hidden;rotatable=0;points=[[0,0.5],[1,0.5]];portConstraint=eastwest;whiteSpace=wrap;html=1;" vertex="1" parent="I--xkWk148IhXR5eMrtj-1">
          <mxGeometry y="212" width="320" height="26" as="geometry" />
        </mxCell>
        <mxCell id="I--xkWk148IhXR5eMrtj-34" value="+ updateAvailability(): type" style="text;strokeColor=none;fillColor=none;align=left;verticalAlign=top;spacingLeft=4;spacingRight=4;overflow=hidden;rotatable=0;points=[[0,0.5],[1,0.5]];portConstraint=eastwest;whiteSpace=wrap;html=1;" vertex="1" parent="I--xkWk148IhXR5eMrtj-1">
          <mxGeometry y="238" width="320" height="26" as="geometry" />
        </mxCell>
        <mxCell id="I--xkWk148IhXR5eMrtj-37" value="+ getRoomRate(): double" style="text;strokeColor=none;fillColor=none;align=left;verticalAlign=top;spacingLeft=4;spacingRight=4;overflow=hidden;rotatable=0;points=[[0,0.5],[1,0.5]];portConstraint=eastwest;whiteSpace=wrap;html=1;" vertex="1" parent="I--xkWk148IhXR5eMrtj-1">
          <mxGeometry y="264" width="320" height="26" as="geometry" />
        </mxCell>
        <mxCell id="I--xkWk148IhXR5eMrtj-5" value="Guest" style="swimlane;fontStyle=1;align=center;verticalAlign=top;childLayout=stackLayout;horizontal=1;startSize=26;horizontalStack=0;resizeParent=1;resizeParentMax=0;resizeLast=0;collapsible=1;marginBottom=0;whiteSpace=wrap;html=1;" vertex="1" parent="1">
          <mxGeometry x="-110" y="399" width="270" height="398" as="geometry" />
        </mxCell>
        <mxCell id="I--xkWk148IhXR5eMrtj-6" value="+ id: String" style="text;strokeColor=none;fillColor=none;align=left;verticalAlign=top;spacingLeft=4;spacingRight=4;overflow=hidden;rotatable=0;points=[[0,0.5],[1,0.5]];portConstraint=eastwest;whiteSpace=wrap;html=1;" vertex="1" parent="I--xkWk148IhXR5eMrtj-5">
          <mxGeometry y="26" width="270" height="26" as="geometry" />
        </mxCell>
        <mxCell id="I--xkWk148IhXR5eMrtj-59" value="+ name: String" style="text;strokeColor=none;fillColor=none;align=left;verticalAlign=top;spacingLeft=4;spacingRight=4;overflow=hidden;rotatable=0;points=[[0,0.5],[1,0.5]];portConstraint=eastwest;whiteSpace=wrap;html=1;" vertex="1" parent="I--xkWk148IhXR5eMrtj-5">
          <mxGeometry y="52" width="270" height="26" as="geometry" />
        </mxCell>
        <mxCell id="I--xkWk148IhXR5eMrtj-57" value="+ email: String" style="text;strokeColor=none;fillColor=none;align=left;verticalAlign=top;spacingLeft=4;spacingRight=4;overflow=hidden;rotatable=0;points=[[0,0.5],[1,0.5]];portConstraint=eastwest;whiteSpace=wrap;html=1;" vertex="1" parent="I--xkWk148IhXR5eMrtj-5">
          <mxGeometry y="78" width="270" height="26" as="geometry" />
        </mxCell>
        <mxCell id="I--xkWk148IhXR5eMrtj-58" value="+ phoneNumber: String" style="text;strokeColor=none;fillColor=none;align=left;verticalAlign=top;spacingLeft=4;spacingRight=4;overflow=hidden;rotatable=0;points=[[0,0.5],[1,0.5]];portConstraint=eastwest;whiteSpace=wrap;html=1;" vertex="1" parent="I--xkWk148IhXR5eMrtj-5">
          <mxGeometry y="104" width="270" height="26" as="geometry" />
        </mxCell>
        <mxCell id="I--xkWk148IhXR5eMrtj-38" value="+ bookings: list&amp;lt;Booking&amp;gt;" style="text;strokeColor=none;fillColor=none;align=left;verticalAlign=top;spacingLeft=4;spacingRight=4;overflow=hidden;rotatable=0;points=[[0,0.5],[1,0.5]];portConstraint=eastwest;whiteSpace=wrap;html=1;" vertex="1" parent="I--xkWk148IhXR5eMrtj-5">
          <mxGeometry y="130" width="270" height="26" as="geometry" />
        </mxCell>
        <mxCell id="kjrA8oqDA9GqIuIEdP53-5" value="+ notificationInbox: String[]" style="text;strokeColor=none;fillColor=none;align=left;verticalAlign=top;spacingLeft=4;spacingRight=4;overflow=hidden;rotatable=0;points=[[0,0.5],[1,0.5]];portConstraint=eastwest;whiteSpace=wrap;html=1;" vertex="1" parent="I--xkWk148IhXR5eMrtj-5">
          <mxGeometry y="156" width="270" height="26" as="geometry" />
        </mxCell>
        <mxCell id="I--xkWk148IhXR5eMrtj-7" value="" style="line;strokeWidth=1;fillColor=none;align=left;verticalAlign=middle;spacingTop=-1;spacingLeft=3;spacingRight=3;rotatable=0;labelPosition=right;points=[];portConstraint=eastwest;strokeColor=inherit;" vertex="1" parent="I--xkWk148IhXR5eMrtj-5">
          <mxGeometry y="182" width="270" height="8" as="geometry" />
        </mxCell>
        <mxCell id="I--xkWk148IhXR5eMrtj-42" value="+ makeBooking(): boolean" style="text;strokeColor=none;fillColor=none;align=left;verticalAlign=top;spacingLeft=4;spacingRight=4;overflow=hidden;rotatable=0;points=[[0,0.5],[1,0.5]];portConstraint=eastwest;whiteSpace=wrap;html=1;" vertex="1" parent="I--xkWk148IhXR5eMrtj-5">
          <mxGeometry y="190" width="270" height="26" as="geometry" />
        </mxCell>
        <mxCell id="I--xkWk148IhXR5eMrtj-8" value="+ cancelBooking(bookingId): boolean" style="text;strokeColor=none;fillColor=none;align=left;verticalAlign=top;spacingLeft=4;spacingRight=4;overflow=hidden;rotatable=0;points=[[0,0.5],[1,0.5]];portConstraint=eastwest;whiteSpace=wrap;html=1;" vertex="1" parent="I--xkWk148IhXR5eMrtj-5">
          <mxGeometry y="216" width="270" height="26" as="geometry" />
        </mxCell>
        <mxCell id="kjrA8oqDA9GqIuIEdP53-8" value="+ viewBookingHistory(bookingId): boolean" style="text;strokeColor=none;fillColor=none;align=left;verticalAlign=top;spacingLeft=4;spacingRight=4;overflow=hidden;rotatable=0;points=[[0,0.5],[1,0.5]];portConstraint=eastwest;whiteSpace=wrap;html=1;" vertex="1" parent="I--xkWk148IhXR5eMrtj-5">
          <mxGeometry y="242" width="270" height="26" as="geometry" />
        </mxCell>
        <mxCell id="I--xkWk148IhXR5eMrtj-39" value="+ viewAvailableRoom(): String" style="text;strokeColor=none;fillColor=none;align=left;verticalAlign=top;spacingLeft=4;spacingRight=4;overflow=hidden;rotatable=0;points=[[0,0.5],[1,0.5]];portConstraint=eastwest;whiteSpace=wrap;html=1;" vertex="1" parent="I--xkWk148IhXR5eMrtj-5">
          <mxGeometry y="268" width="270" height="26" as="geometry" />
        </mxCell>
        <mxCell id="YRBV2urnZXZ1e8K0LFWp-46" value="+ viewRoomDetail(Room room): String" style="text;strokeColor=none;fillColor=none;align=left;verticalAlign=top;spacingLeft=4;spacingRight=4;overflow=hidden;rotatable=0;points=[[0,0.5],[1,0.5]];portConstraint=eastwest;whiteSpace=wrap;html=1;" vertex="1" parent="I--xkWk148IhXR5eMrtj-5">
          <mxGeometry y="294" width="270" height="26" as="geometry" />
        </mxCell>
        <mxCell id="YRBV2urnZXZ1e8K0LFWp-45" value="+ makePayment(Booking booking): boolean" style="text;strokeColor=none;fillColor=none;align=left;verticalAlign=top;spacingLeft=4;spacingRight=4;overflow=hidden;rotatable=0;points=[[0,0.5],[1,0.5]];portConstraint=eastwest;whiteSpace=wrap;html=1;" vertex="1" parent="I--xkWk148IhXR5eMrtj-5">
          <mxGeometry y="320" width="270" height="26" as="geometry" />
        </mxCell>
        <mxCell id="kjrA8oqDA9GqIuIEdP53-6" value="+ getPaymentStatus(Booking booking): boolean" style="text;strokeColor=none;fillColor=none;align=left;verticalAlign=top;spacingLeft=4;spacingRight=4;overflow=hidden;rotatable=0;points=[[0,0.5],[1,0.5]];portConstraint=eastwest;whiteSpace=wrap;html=1;" vertex="1" parent="I--xkWk148IhXR5eMrtj-5">
          <mxGeometry y="346" width="270" height="26" as="geometry" />
        </mxCell>
        <mxCell id="kjrA8oqDA9GqIuIEdP53-7" value="+ checkRoomAvailability(roomId): boolean" style="text;strokeColor=none;fillColor=none;align=left;verticalAlign=top;spacingLeft=4;spacingRight=4;overflow=hidden;rotatable=0;points=[[0,0.5],[1,0.5]];portConstraint=eastwest;whiteSpace=wrap;html=1;" vertex="1" parent="I--xkWk148IhXR5eMrtj-5">
          <mxGeometry y="372" width="270" height="26" as="geometry" />
        </mxCell>
        <mxCell id="I--xkWk148IhXR5eMrtj-43" value="Inn/Hotel/System" style="swimlane;fontStyle=1;align=center;verticalAlign=top;childLayout=stackLayout;horizontal=1;startSize=26;horizontalStack=0;resizeParent=1;resizeParentMax=0;resizeLast=0;collapsible=1;marginBottom=0;whiteSpace=wrap;html=1;" vertex="1" parent="1">
          <mxGeometry x="170" y="45" width="290" height="840" as="geometry" />
        </mxCell>
        <mxCell id="I--xkWk148IhXR5eMrtj-44" value="+ id: UUID String" style="text;strokeColor=none;fillColor=none;align=left;verticalAlign=top;spacingLeft=4;spacingRight=4;overflow=hidden;rotatable=0;points=[[0,0.5],[1,0.5]];portConstraint=eastwest;whiteSpace=wrap;html=1;" vertex="1" parent="I--xkWk148IhXR5eMrtj-43">
          <mxGeometry y="26" width="290" height="26" as="geometry" />
        </mxCell>
        <mxCell id="YRBV2urnZXZ1e8K0LFWp-2" value="+ name: String" style="text;strokeColor=none;fillColor=none;align=left;verticalAlign=top;spacingLeft=4;spacingRight=4;overflow=hidden;rotatable=0;points=[[0,0.5],[1,0.5]];portConstraint=eastwest;whiteSpace=wrap;html=1;" vertex="1" parent="I--xkWk148IhXR5eMrtj-43">
          <mxGeometry y="52" width="290" height="26" as="geometry" />
        </mxCell>
        <mxCell id="YRBV2urnZXZ1e8K0LFWp-3" value="+ address: String" style="text;strokeColor=none;fillColor=none;align=left;verticalAlign=top;spacingLeft=4;spacingRight=4;overflow=hidden;rotatable=0;points=[[0,0.5],[1,0.5]];portConstraint=eastwest;whiteSpace=wrap;html=1;" vertex="1" parent="I--xkWk148IhXR5eMrtj-43">
          <mxGeometry y="78" width="290" height="26" as="geometry" />
        </mxCell>
        <mxCell id="YRBV2urnZXZ1e8K0LFWp-4" value="+ rooms: list&amp;lt;Room&amp;gt;" style="text;strokeColor=none;fillColor=none;align=left;verticalAlign=top;spacingLeft=4;spacingRight=4;overflow=hidden;rotatable=0;points=[[0,0.5],[1,0.5]];portConstraint=eastwest;whiteSpace=wrap;html=1;" vertex="1" parent="I--xkWk148IhXR5eMrtj-43">
          <mxGeometry y="104" width="290" height="26" as="geometry" />
        </mxCell>
        <mxCell id="I--xkWk148IhXR5eMrtj-45" value="" style="line;strokeWidth=1;fillColor=none;align=left;verticalAlign=middle;spacingTop=-1;spacingLeft=3;spacingRight=3;rotatable=0;labelPosition=right;points=[];portConstraint=eastwest;strokeColor=inherit;" vertex="1" parent="I--xkWk148IhXR5eMrtj-43">
          <mxGeometry y="130" width="290" height="8" as="geometry" />
        </mxCell>
        <mxCell id="YRBV2urnZXZ1e8K0LFWp-14" value="+ manage Rooms:&amp;nbsp;" style="text;strokeColor=none;fillColor=none;align=left;verticalAlign=top;spacingLeft=4;spacingRight=4;overflow=hidden;rotatable=0;points=[[0,0.5],[1,0.5]];portConstraint=eastwest;whiteSpace=wrap;html=1;fontStyle=1" vertex="1" parent="I--xkWk148IhXR5eMrtj-43">
          <mxGeometry y="138" width="290" height="26" as="geometry" />
        </mxCell>
        <mxCell id="I--xkWk148IhXR5eMrtj-46" value="+&amp;nbsp;&lt;span style=&quot;white-space: pre;&quot;&gt;&#x9;&lt;/span&gt;addRoom(Room room): boolean" style="text;strokeColor=none;fillColor=none;align=left;verticalAlign=top;spacingLeft=4;spacingRight=4;overflow=hidden;rotatable=0;points=[[0,0.5],[1,0.5]];portConstraint=eastwest;whiteSpace=wrap;html=1;" vertex="1" parent="I--xkWk148IhXR5eMrtj-43">
          <mxGeometry y="164" width="290" height="26" as="geometry" />
        </mxCell>
        <mxCell id="YRBV2urnZXZ1e8K0LFWp-5" value="+ &lt;span style=&quot;white-space: pre;&quot;&gt;&#x9;&lt;/span&gt;removeRoom(Room room): boolean" style="text;strokeColor=none;fillColor=none;align=left;verticalAlign=top;spacingLeft=4;spacingRight=4;overflow=hidden;rotatable=0;points=[[0,0.5],[1,0.5]];portConstraint=eastwest;whiteSpace=wrap;html=1;" vertex="1" parent="I--xkWk148IhXR5eMrtj-43">
          <mxGeometry y="190" width="290" height="26" as="geometry" />
        </mxCell>
        <mxCell id="YRBV2urnZXZ1e8K0LFWp-6" value="+ &lt;span style=&quot;white-space: pre;&quot;&gt;&#x9;&lt;/span&gt;viewAllRooms(): list&amp;lt;Room&amp;gt;" style="text;strokeColor=none;fillColor=none;align=left;verticalAlign=top;spacingLeft=4;spacingRight=4;overflow=hidden;rotatable=0;points=[[0,0.5],[1,0.5]];portConstraint=eastwest;whiteSpace=wrap;html=1;" vertex="1" parent="I--xkWk148IhXR5eMrtj-43">
          <mxGeometry y="216" width="290" height="26" as="geometry" />
        </mxCell>
        <mxCell id="YRBV2urnZXZ1e8K0LFWp-33" value="+ &lt;span style=&quot;white-space: pre;&quot;&gt;&#x9;&lt;/span&gt;updateRoom(Room room): void" style="text;strokeColor=none;fillColor=none;align=left;verticalAlign=top;spacingLeft=4;spacingRight=4;overflow=hidden;rotatable=0;points=[[0,0.5],[1,0.5]];portConstraint=eastwest;whiteSpace=wrap;html=1;" vertex="1" parent="I--xkWk148IhXR5eMrtj-43">
          <mxGeometry y="242" width="290" height="26" as="geometry" />
        </mxCell>
        <mxCell id="YRBV2urnZXZ1e8K0LFWp-7" value="+ &lt;span style=&quot;white-space: pre;&quot;&gt;&#x9;&lt;/span&gt;viewAllAvailableRooms(): list&amp;lt;Room&amp;gt;" style="text;strokeColor=none;fillColor=none;align=left;verticalAlign=top;spacingLeft=4;spacingRight=4;overflow=hidden;rotatable=0;points=[[0,0.5],[1,0.5]];portConstraint=eastwest;whiteSpace=wrap;html=1;" vertex="1" parent="I--xkWk148IhXR5eMrtj-43">
          <mxGeometry y="268" width="290" height="26" as="geometry" />
        </mxCell>
        <mxCell id="YRBV2urnZXZ1e8K0LFWp-8" value="+ &lt;span style=&quot;white-space: pre;&quot;&gt;&#x9;&lt;/span&gt;getOccupancyRate(type): type" style="text;strokeColor=none;fillColor=none;align=left;verticalAlign=top;spacingLeft=4;spacingRight=4;overflow=hidden;rotatable=0;points=[[0,0.5],[1,0.5]];portConstraint=eastwest;whiteSpace=wrap;html=1;" vertex="1" parent="I--xkWk148IhXR5eMrtj-43">
          <mxGeometry y="294" width="290" height="26" as="geometry" />
        </mxCell>
        <mxCell id="I--xkWk148IhXR5eMrtj-60" value="+ &lt;span style=&quot;white-space: pre;&quot;&gt;&#x9;&lt;/span&gt;calculateCost(type): type" style="text;strokeColor=none;fillColor=none;align=left;verticalAlign=top;spacingLeft=4;spacingRight=4;overflow=hidden;rotatable=0;points=[[0,0.5],[1,0.5]];portConstraint=eastwest;whiteSpace=wrap;html=1;" vertex="1" parent="I--xkWk148IhXR5eMrtj-43">
          <mxGeometry y="320" width="290" height="26" as="geometry" />
        </mxCell>
        <mxCell id="I--xkWk148IhXR5eMrtj-77" value="+ &lt;span style=&quot;white-space: pre;&quot;&gt;&#x9;&lt;/span&gt;simulateMaintainance(roomId): void" style="text;strokeColor=none;fillColor=none;align=left;verticalAlign=top;spacingLeft=4;spacingRight=4;overflow=hidden;rotatable=0;points=[[0,0.5],[1,0.5]];portConstraint=eastwest;whiteSpace=wrap;html=1;" vertex="1" parent="I--xkWk148IhXR5eMrtj-43">
          <mxGeometry y="346" width="290" height="26" as="geometry" />
        </mxCell>
        <mxCell id="I--xkWk148IhXR5eMrtj-78" value="+ &lt;span style=&quot;white-space: pre;&quot;&gt;&#x9;&lt;/span&gt;sendNotification(guestId, message): boolean" style="text;strokeColor=none;fillColor=none;align=left;verticalAlign=top;spacingLeft=4;spacingRight=4;overflow=hidden;rotatable=0;points=[[0,0.5],[1,0.5]];portConstraint=eastwest;whiteSpace=wrap;html=1;" vertex="1" parent="I--xkWk148IhXR5eMrtj-43">
          <mxGeometry y="372" width="290" height="26" as="geometry" />
        </mxCell>
        <mxCell id="I--xkWk148IhXR5eMrtj-74" value="+ &lt;span style=&quot;white-space: pre;&quot;&gt;&#x9;&lt;/span&gt;dynamicPricing(guestId, message): boolean" style="text;strokeColor=none;fillColor=none;align=left;verticalAlign=top;spacingLeft=4;spacingRight=4;overflow=hidden;rotatable=0;points=[[0,0.5],[1,0.5]];portConstraint=eastwest;whiteSpace=wrap;html=1;" vertex="1" parent="I--xkWk148IhXR5eMrtj-43">
          <mxGeometry y="398" width="290" height="26" as="geometry" />
        </mxCell>
        <mxCell id="kjrA8oqDA9GqIuIEdP53-1" value="&lt;b&gt;+ Reporting and Analytics:&lt;/b&gt;" style="text;strokeColor=none;fillColor=none;align=left;verticalAlign=top;spacingLeft=4;spacingRight=4;overflow=hidden;rotatable=0;points=[[0,0.5],[1,0.5]];portConstraint=eastwest;whiteSpace=wrap;html=1;" vertex="1" parent="I--xkWk148IhXR5eMrtj-43">
          <mxGeometry y="424" width="290" height="26" as="geometry" />
        </mxCell>
        <mxCell id="I--xkWk148IhXR5eMrtj-79" value="+ &lt;span style=&quot;white-space: pre;&quot;&gt;&#x9;&lt;/span&gt;generateReport(guestId, message): boolean" style="text;strokeColor=none;fillColor=none;align=left;verticalAlign=top;spacingLeft=4;spacingRight=4;overflow=hidden;rotatable=0;points=[[0,0.5],[1,0.5]];portConstraint=eastwest;whiteSpace=wrap;html=1;" vertex="1" parent="I--xkWk148IhXR5eMrtj-43">
          <mxGeometry y="450" width="290" height="26" as="geometry" />
        </mxCell>
        <mxCell id="YRBV2urnZXZ1e8K0LFWp-10" value="+ manageGuests&lt;span style=&quot;background-color: transparent; color: light-dark(rgb(0, 0, 0), rgb(255, 255, 255));&quot;&gt;:&amp;nbsp;&lt;/span&gt;" style="text;strokeColor=none;fillColor=none;align=left;verticalAlign=top;spacingLeft=4;spacingRight=4;overflow=hidden;rotatable=0;points=[[0,0.5],[1,0.5]];portConstraint=eastwest;whiteSpace=wrap;html=1;fontStyle=1" vertex="1" parent="I--xkWk148IhXR5eMrtj-43">
          <mxGeometry y="476" width="290" height="26" as="geometry" />
        </mxCell>
        <mxCell id="YRBV2urnZXZ1e8K0LFWp-11" value="+ &lt;span style=&quot;white-space: pre;&quot;&gt;&#x9;&lt;/span&gt;view guest detail(): String" style="text;strokeColor=none;fillColor=none;align=left;verticalAlign=top;spacingLeft=4;spacingRight=4;overflow=hidden;rotatable=0;points=[[0,0.5],[1,0.5]];portConstraint=eastwest;whiteSpace=wrap;html=1;" vertex="1" parent="I--xkWk148IhXR5eMrtj-43">
          <mxGeometry y="502" width="290" height="26" as="geometry" />
        </mxCell>
        <mxCell id="YRBV2urnZXZ1e8K0LFWp-41" value="+ &lt;span style=&quot;white-space: pre;&quot;&gt;&#x9;&lt;/span&gt;viewGuestBookings(): String" style="text;strokeColor=none;fillColor=none;align=left;verticalAlign=top;spacingLeft=4;spacingRight=4;overflow=hidden;rotatable=0;points=[[0,0.5],[1,0.5]];portConstraint=eastwest;whiteSpace=wrap;html=1;" vertex="1" parent="I--xkWk148IhXR5eMrtj-43">
          <mxGeometry y="528" width="290" height="26" as="geometry" />
        </mxCell>
        <mxCell id="YRBV2urnZXZ1e8K0LFWp-42" value="+ &lt;span style=&quot;white-space: pre;&quot;&gt;&#x9;&lt;/span&gt;viewGuestBookingsHistory(): String" style="text;strokeColor=none;fillColor=none;align=left;verticalAlign=top;spacingLeft=4;spacingRight=4;overflow=hidden;rotatable=0;points=[[0,0.5],[1,0.5]];portConstraint=eastwest;whiteSpace=wrap;html=1;" vertex="1" parent="I--xkWk148IhXR5eMrtj-43">
          <mxGeometry y="554" width="290" height="26" as="geometry" />
        </mxCell>
        <mxCell id="YRBV2urnZXZ1e8K0LFWp-12" value="+ manage Bookings:" style="text;strokeColor=none;fillColor=none;align=left;verticalAlign=top;spacingLeft=4;spacingRight=4;overflow=hidden;rotatable=0;points=[[0,0.5],[1,0.5]];portConstraint=eastwest;whiteSpace=wrap;html=1;fontStyle=1" vertex="1" parent="I--xkWk148IhXR5eMrtj-43">
          <mxGeometry y="580" width="290" height="26" as="geometry" />
        </mxCell>
        <mxCell id="YRBV2urnZXZ1e8K0LFWp-13" value="+ &lt;span style=&quot;white-space: pre;&quot;&gt;&#x9;&lt;/span&gt;viewBooking(Booking boooking): String" style="text;strokeColor=none;fillColor=none;align=left;verticalAlign=top;spacingLeft=4;spacingRight=4;overflow=hidden;rotatable=0;points=[[0,0.5],[1,0.5]];portConstraint=eastwest;whiteSpace=wrap;html=1;" vertex="1" parent="I--xkWk148IhXR5eMrtj-43">
          <mxGeometry y="606" width="290" height="26" as="geometry" />
        </mxCell>
        <mxCell id="YRBV2urnZXZ1e8K0LFWp-35" value="+ &lt;span style=&quot;white-space: pre;&quot;&gt;&#x9;&lt;/span&gt;cancelBooking(Booking booking): String" style="text;strokeColor=none;fillColor=none;align=left;verticalAlign=top;spacingLeft=4;spacingRight=4;overflow=hidden;rotatable=0;points=[[0,0.5],[1,0.5]];portConstraint=eastwest;whiteSpace=wrap;html=1;" vertex="1" parent="I--xkWk148IhXR5eMrtj-43">
          <mxGeometry y="632" width="290" height="26" as="geometry" />
        </mxCell>
        <mxCell id="YRBV2urnZXZ1e8K0LFWp-36" value="+ &lt;span style=&quot;white-space: pre;&quot;&gt;&#x9;&lt;/span&gt;updateBooking(Booking booking): String" style="text;strokeColor=none;fillColor=none;align=left;verticalAlign=top;spacingLeft=4;spacingRight=4;overflow=hidden;rotatable=0;points=[[0,0.5],[1,0.5]];portConstraint=eastwest;whiteSpace=wrap;html=1;" vertex="1" parent="I--xkWk148IhXR5eMrtj-43">
          <mxGeometry y="658" width="290" height="26" as="geometry" />
        </mxCell>
        <mxCell id="YRBV2urnZXZ1e8K0LFWp-37" value="+ creatHotel(): Hotel" style="text;strokeColor=none;fillColor=none;align=left;verticalAlign=top;spacingLeft=4;spacingRight=4;overflow=hidden;rotatable=0;points=[[0,0.5],[1,0.5]];portConstraint=eastwest;whiteSpace=wrap;html=1;" vertex="1" parent="I--xkWk148IhXR5eMrtj-43">
          <mxGeometry y="684" width="290" height="26" as="geometry" />
        </mxCell>
        <mxCell id="YRBV2urnZXZ1e8K0LFWp-38" value="+ deleteHotel(): void" style="text;strokeColor=none;fillColor=none;align=left;verticalAlign=top;spacingLeft=4;spacingRight=4;overflow=hidden;rotatable=0;points=[[0,0.5],[1,0.5]];portConstraint=eastwest;whiteSpace=wrap;html=1;" vertex="1" parent="I--xkWk148IhXR5eMrtj-43">
          <mxGeometry y="710" width="290" height="26" as="geometry" />
        </mxCell>
        <mxCell id="YRBV2urnZXZ1e8K0LFWp-40" value="+ viewHotel(): String" style="text;strokeColor=none;fillColor=none;align=left;verticalAlign=top;spacingLeft=4;spacingRight=4;overflow=hidden;rotatable=0;points=[[0,0.5],[1,0.5]];portConstraint=eastwest;whiteSpace=wrap;html=1;" vertex="1" parent="I--xkWk148IhXR5eMrtj-43">
          <mxGeometry y="736" width="290" height="26" as="geometry" />
        </mxCell>
        <mxCell id="YRBV2urnZXZ1e8K0LFWp-39" value="+ updateHotel(): String" style="text;strokeColor=none;fillColor=none;align=left;verticalAlign=top;spacingLeft=4;spacingRight=4;overflow=hidden;rotatable=0;points=[[0,0.5],[1,0.5]];portConstraint=eastwest;whiteSpace=wrap;html=1;" vertex="1" parent="I--xkWk148IhXR5eMrtj-43">
          <mxGeometry y="762" width="290" height="26" as="geometry" />
        </mxCell>
        <mxCell id="YRBV2urnZXZ1e8K0LFWp-43" value="+ manage Payment:" style="text;strokeColor=none;fillColor=none;align=left;verticalAlign=top;spacingLeft=4;spacingRight=4;overflow=hidden;rotatable=0;points=[[0,0.5],[1,0.5]];portConstraint=eastwest;whiteSpace=wrap;html=1;fontStyle=1" vertex="1" parent="I--xkWk148IhXR5eMrtj-43">
          <mxGeometry y="788" width="290" height="26" as="geometry" />
        </mxCell>
        <mxCell id="YRBV2urnZXZ1e8K0LFWp-44" value="+ &lt;span style=&quot;white-space: pre;&quot;&gt;&#x9;&lt;/span&gt;processPayment(Pament payment): String" style="text;strokeColor=none;fillColor=none;align=left;verticalAlign=top;spacingLeft=4;spacingRight=4;overflow=hidden;rotatable=0;points=[[0,0.5],[1,0.5]];portConstraint=eastwest;whiteSpace=wrap;html=1;" vertex="1" parent="I--xkWk148IhXR5eMrtj-43">
          <mxGeometry y="814" width="290" height="26" as="geometry" />
        </mxCell>
        <mxCell id="I--xkWk148IhXR5eMrtj-49" value="Admin" style="swimlane;fontStyle=1;align=center;verticalAlign=top;childLayout=stackLayout;horizontal=1;startSize=26;horizontalStack=0;resizeParent=1;resizeParentMax=0;resizeLast=0;collapsible=1;marginBottom=0;whiteSpace=wrap;html=1;" vertex="1" parent="1">
          <mxGeometry x="498" y="350" width="250" height="212" as="geometry" />
        </mxCell>
        <mxCell id="I--xkWk148IhXR5eMrtj-50" value="+ id: String" style="text;strokeColor=none;fillColor=none;align=left;verticalAlign=top;spacingLeft=4;spacingRight=4;overflow=hidden;rotatable=0;points=[[0,0.5],[1,0.5]];portConstraint=eastwest;whiteSpace=wrap;html=1;" vertex="1" parent="I--xkWk148IhXR5eMrtj-49">
          <mxGeometry y="26" width="250" height="26" as="geometry" />
        </mxCell>
        <mxCell id="YRBV2urnZXZ1e8K0LFWp-17" value="+ name: String" style="text;strokeColor=none;fillColor=none;align=left;verticalAlign=top;spacingLeft=4;spacingRight=4;overflow=hidden;rotatable=0;points=[[0,0.5],[1,0.5]];portConstraint=eastwest;whiteSpace=wrap;html=1;" vertex="1" parent="I--xkWk148IhXR5eMrtj-49">
          <mxGeometry y="52" width="250" height="26" as="geometry" />
        </mxCell>
        <mxCell id="YRBV2urnZXZ1e8K0LFWp-15" value="+ password: String" style="text;strokeColor=none;fillColor=none;align=left;verticalAlign=top;spacingLeft=4;spacingRight=4;overflow=hidden;rotatable=0;points=[[0,0.5],[1,0.5]];portConstraint=eastwest;whiteSpace=wrap;html=1;" vertex="1" parent="I--xkWk148IhXR5eMrtj-49">
          <mxGeometry y="78" width="250" height="26" as="geometry" />
        </mxCell>
        <mxCell id="YRBV2urnZXZ1e8K0LFWp-16" value="+ role: RoleType enum HotelStaff, Adminstrator" style="text;strokeColor=none;fillColor=none;align=left;verticalAlign=top;spacingLeft=4;spacingRight=4;overflow=hidden;rotatable=0;points=[[0,0.5],[1,0.5]];portConstraint=eastwest;whiteSpace=wrap;html=1;" vertex="1" parent="I--xkWk148IhXR5eMrtj-49">
          <mxGeometry y="104" width="250" height="46" as="geometry" />
        </mxCell>
        <mxCell id="I--xkWk148IhXR5eMrtj-51" value="" style="line;strokeWidth=1;fillColor=none;align=left;verticalAlign=middle;spacingTop=-1;spacingLeft=3;spacingRight=3;rotatable=0;labelPosition=right;points=[];portConstraint=eastwest;strokeColor=inherit;" vertex="1" parent="I--xkWk148IhXR5eMrtj-49">
          <mxGeometry y="150" width="250" height="8" as="geometry" />
        </mxCell>
        <mxCell id="I--xkWk148IhXR5eMrtj-52" value="&lt;div&gt;+ accessHotelSystem()&lt;/div&gt;" style="text;strokeColor=none;fillColor=none;align=left;verticalAlign=top;spacingLeft=4;spacingRight=4;overflow=hidden;rotatable=0;points=[[0,0.5],[1,0.5]];portConstraint=eastwest;whiteSpace=wrap;html=1;" vertex="1" parent="I--xkWk148IhXR5eMrtj-49">
          <mxGeometry y="158" width="250" height="28" as="geometry" />
        </mxCell>
        <mxCell id="I--xkWk148IhXR5eMrtj-71" value="+ updatePersonalInformation(): String" style="text;strokeColor=none;fillColor=none;align=left;verticalAlign=top;spacingLeft=4;spacingRight=4;overflow=hidden;rotatable=0;points=[[0,0.5],[1,0.5]];portConstraint=eastwest;whiteSpace=wrap;html=1;" vertex="1" parent="I--xkWk148IhXR5eMrtj-49">
          <mxGeometry y="186" width="250" height="26" as="geometry" />
        </mxCell>
        <mxCell id="I--xkWk148IhXR5eMrtj-61" value="Booking" style="swimlane;fontStyle=1;align=center;verticalAlign=top;childLayout=stackLayout;horizontal=1;startSize=26;horizontalStack=0;resizeParent=1;resizeParentMax=0;resizeLast=0;collapsible=1;marginBottom=0;whiteSpace=wrap;html=1;" vertex="1" parent="1">
          <mxGeometry x="-150" y="70" width="280" height="320" as="geometry" />
        </mxCell>
        <mxCell id="I--xkWk148IhXR5eMrtj-62" value="+ id: type" style="text;strokeColor=none;fillColor=none;align=left;verticalAlign=top;spacingLeft=4;spacingRight=4;overflow=hidden;rotatable=0;points=[[0,0.5],[1,0.5]];portConstraint=eastwest;whiteSpace=wrap;html=1;" vertex="1" parent="I--xkWk148IhXR5eMrtj-61">
          <mxGeometry y="26" width="280" height="26" as="geometry" />
        </mxCell>
        <mxCell id="kjrA8oqDA9GqIuIEdP53-2" value="+ roomId: type" style="text;strokeColor=none;fillColor=none;align=left;verticalAlign=top;spacingLeft=4;spacingRight=4;overflow=hidden;rotatable=0;points=[[0,0.5],[1,0.5]];portConstraint=eastwest;whiteSpace=wrap;html=1;" vertex="1" parent="I--xkWk148IhXR5eMrtj-61">
          <mxGeometry y="52" width="280" height="26" as="geometry" />
        </mxCell>
        <mxCell id="kjrA8oqDA9GqIuIEdP53-3" value="+ guestId: type" style="text;strokeColor=none;fillColor=none;align=left;verticalAlign=top;spacingLeft=4;spacingRight=4;overflow=hidden;rotatable=0;points=[[0,0.5],[1,0.5]];portConstraint=eastwest;whiteSpace=wrap;html=1;" vertex="1" parent="I--xkWk148IhXR5eMrtj-61">
          <mxGeometry y="78" width="280" height="26" as="geometry" />
        </mxCell>
        <mxCell id="YRBV2urnZXZ1e8K0LFWp-19" value="+ arrivalDate: Date" style="text;strokeColor=none;fillColor=none;align=left;verticalAlign=top;spacingLeft=4;spacingRight=4;overflow=hidden;rotatable=0;points=[[0,0.5],[1,0.5]];portConstraint=eastwest;whiteSpace=wrap;html=1;" vertex="1" parent="I--xkWk148IhXR5eMrtj-61">
          <mxGeometry y="104" width="280" height="26" as="geometry" />
        </mxCell>
        <mxCell id="YRBV2urnZXZ1e8K0LFWp-20" value="+ depatureDate: Date" style="text;strokeColor=none;fillColor=none;align=left;verticalAlign=top;spacingLeft=4;spacingRight=4;overflow=hidden;rotatable=0;points=[[0,0.5],[1,0.5]];portConstraint=eastwest;whiteSpace=wrap;html=1;" vertex="1" parent="I--xkWk148IhXR5eMrtj-61">
          <mxGeometry y="130" width="280" height="26" as="geometry" />
        </mxCell>
        <mxCell id="YRBV2urnZXZ1e8K0LFWp-21" value="+ status: BookingStatus enum{default -&amp;gt;pending, confirmed, afterDeparture date set as -&amp;gt;cancled}" style="text;strokeColor=none;fillColor=none;align=left;verticalAlign=top;spacingLeft=4;spacingRight=4;overflow=hidden;rotatable=0;points=[[0,0.5],[1,0.5]];portConstraint=eastwest;whiteSpace=wrap;html=1;" vertex="1" parent="I--xkWk148IhXR5eMrtj-61">
          <mxGeometry y="156" width="280" height="44" as="geometry" />
        </mxCell>
        <mxCell id="I--xkWk148IhXR5eMrtj-63" value="" style="line;strokeWidth=1;fillColor=none;align=left;verticalAlign=middle;spacingTop=-1;spacingLeft=3;spacingRight=3;rotatable=0;labelPosition=right;points=[];portConstraint=eastwest;strokeColor=inherit;" vertex="1" parent="I--xkWk148IhXR5eMrtj-61">
          <mxGeometry y="200" width="280" height="8" as="geometry" />
        </mxCell>
        <mxCell id="I--xkWk148IhXR5eMrtj-69" value="+ confirm(): void" style="text;strokeColor=none;fillColor=none;align=left;verticalAlign=top;spacingLeft=4;spacingRight=4;overflow=hidden;rotatable=0;points=[[0,0.5],[1,0.5]];portConstraint=eastwest;whiteSpace=wrap;html=1;" vertex="1" parent="I--xkWk148IhXR5eMrtj-61">
          <mxGeometry y="208" width="280" height="26" as="geometry" />
        </mxCell>
        <mxCell id="I--xkWk148IhXR5eMrtj-66" value="+ cancel(): void" style="text;strokeColor=none;fillColor=none;align=left;verticalAlign=top;spacingLeft=4;spacingRight=4;overflow=hidden;rotatable=0;points=[[0,0.5],[1,0.5]];portConstraint=eastwest;whiteSpace=wrap;html=1;" vertex="1" parent="I--xkWk148IhXR5eMrtj-61">
          <mxGeometry y="234" width="280" height="26" as="geometry" />
        </mxCell>
        <mxCell id="YRBV2urnZXZ1e8K0LFWp-22" value="+ updateStatus(): type" style="text;strokeColor=none;fillColor=none;align=left;verticalAlign=top;spacingLeft=4;spacingRight=4;overflow=hidden;rotatable=0;points=[[0,0.5],[1,0.5]];portConstraint=eastwest;whiteSpace=wrap;html=1;" vertex="1" parent="I--xkWk148IhXR5eMrtj-61">
          <mxGeometry y="260" width="280" height="26" as="geometry" />
        </mxCell>
        <mxCell id="YRBV2urnZXZ1e8K0LFWp-23" value="+ getBookingDetails():" style="text;strokeColor=none;fillColor=none;align=left;verticalAlign=top;spacingLeft=4;spacingRight=4;overflow=hidden;rotatable=0;points=[[0,0.5],[1,0.5]];portConstraint=eastwest;whiteSpace=wrap;html=1;" vertex="1" parent="I--xkWk148IhXR5eMrtj-61">
          <mxGeometry y="286" width="280" height="26" as="geometry" />
        </mxCell>
        <mxCell id="I--xkWk148IhXR5eMrtj-68" value="" style="line;strokeWidth=1;fillColor=none;align=left;verticalAlign=middle;spacingTop=-1;spacingLeft=3;spacingRight=3;rotatable=0;labelPosition=right;points=[];portConstraint=eastwest;strokeColor=inherit;" vertex="1" parent="I--xkWk148IhXR5eMrtj-61">
          <mxGeometry y="312" width="280" height="8" as="geometry" />
        </mxCell>
        <mxCell id="YRBV2urnZXZ1e8K0LFWp-24" value="Payment" style="swimlane;fontStyle=1;align=center;verticalAlign=top;childLayout=stackLayout;horizontal=1;startSize=26;horizontalStack=0;resizeParent=1;resizeParentMax=0;resizeLast=0;collapsible=1;marginBottom=0;whiteSpace=wrap;html=1;" vertex="1" parent="1">
          <mxGeometry x="498" y="570" width="250" height="228" as="geometry" />
        </mxCell>
        <mxCell id="YRBV2urnZXZ1e8K0LFWp-25" value="+ id: String" style="text;strokeColor=none;fillColor=none;align=left;verticalAlign=top;spacingLeft=4;spacingRight=4;overflow=hidden;rotatable=0;points=[[0,0.5],[1,0.5]];portConstraint=eastwest;whiteSpace=wrap;html=1;" vertex="1" parent="YRBV2urnZXZ1e8K0LFWp-24">
          <mxGeometry y="26" width="250" height="26" as="geometry" />
        </mxCell>
        <mxCell id="YRBV2urnZXZ1e8K0LFWp-26" value="+ booking: Booking" style="text;strokeColor=none;fillColor=none;align=left;verticalAlign=top;spacingLeft=4;spacingRight=4;overflow=hidden;rotatable=0;points=[[0,0.5],[1,0.5]];portConstraint=eastwest;whiteSpace=wrap;html=1;" vertex="1" parent="YRBV2urnZXZ1e8K0LFWp-24">
          <mxGeometry y="52" width="250" height="26" as="geometry" />
        </mxCell>
        <mxCell id="YRBV2urnZXZ1e8K0LFWp-27" value="+ amount: String" style="text;strokeColor=none;fillColor=none;align=left;verticalAlign=top;spacingLeft=4;spacingRight=4;overflow=hidden;rotatable=0;points=[[0,0.5],[1,0.5]];portConstraint=eastwest;whiteSpace=wrap;html=1;" vertex="1" parent="YRBV2urnZXZ1e8K0LFWp-24">
          <mxGeometry y="78" width="250" height="26" as="geometry" />
        </mxCell>
        <mxCell id="YRBV2urnZXZ1e8K0LFWp-28" value="+ status: PaymentConfirmation enum{pending, paid, failed}" style="text;strokeColor=none;fillColor=none;align=left;verticalAlign=top;spacingLeft=4;spacingRight=4;overflow=hidden;rotatable=0;points=[[0,0.5],[1,0.5]];portConstraint=eastwest;whiteSpace=wrap;html=1;" vertex="1" parent="YRBV2urnZXZ1e8K0LFWp-24">
          <mxGeometry y="104" width="250" height="36" as="geometry" />
        </mxCell>
        <mxCell id="YRBV2urnZXZ1e8K0LFWp-29" value="" style="line;strokeWidth=1;fillColor=none;align=left;verticalAlign=middle;spacingTop=-1;spacingLeft=3;spacingRight=3;rotatable=0;labelPosition=right;points=[];portConstraint=eastwest;strokeColor=inherit;" vertex="1" parent="YRBV2urnZXZ1e8K0LFWp-24">
          <mxGeometry y="140" width="250" height="8" as="geometry" />
        </mxCell>
        <mxCell id="YRBV2urnZXZ1e8K0LFWp-30" value="&lt;div&gt;+ processPayment()&lt;/div&gt;" style="text;strokeColor=none;fillColor=none;align=left;verticalAlign=top;spacingLeft=4;spacingRight=4;overflow=hidden;rotatable=0;points=[[0,0.5],[1,0.5]];portConstraint=eastwest;whiteSpace=wrap;html=1;" vertex="1" parent="YRBV2urnZXZ1e8K0LFWp-24">
          <mxGeometry y="148" width="250" height="28" as="geometry" />
        </mxCell>
        <mxCell id="YRBV2urnZXZ1e8K0LFWp-31" value="+ updateStatus(): String" style="text;strokeColor=none;fillColor=none;align=left;verticalAlign=top;spacingLeft=4;spacingRight=4;overflow=hidden;rotatable=0;points=[[0,0.5],[1,0.5]];portConstraint=eastwest;whiteSpace=wrap;html=1;" vertex="1" parent="YRBV2urnZXZ1e8K0LFWp-24">
          <mxGeometry y="176" width="250" height="26" as="geometry" />
        </mxCell>
        <mxCell id="YRBV2urnZXZ1e8K0LFWp-32" value="+ getPaymentDetails(): String" style="text;strokeColor=none;fillColor=none;align=left;verticalAlign=top;spacingLeft=4;spacingRight=4;overflow=hidden;rotatable=0;points=[[0,0.5],[1,0.5]];portConstraint=eastwest;whiteSpace=wrap;html=1;" vertex="1" parent="YRBV2urnZXZ1e8K0LFWp-24">
          <mxGeometry y="202" width="250" height="26" as="geometry" />
        </mxCell>
      </root>
    </mxGraphModel>
  </diagram>
  <diagram id="pGaFgF0vAtARwdfvoVf5" name="Page-2">
    <mxGraphModel dx="754" dy="630" grid="1" gridSize="10" guides="1" tooltips="1" connect="1" arrows="1" fold="1" page="1" pageScale="1" pageWidth="827" pageHeight="1169" math="0" shadow="0">
      <root>
        <mxCell id="0" />
        <mxCell id="1" parent="0" />
        <mxCell id="v7MBlFbX5arqdHuUOubt-1" value="Welcome to Naija Comfort Inn!" style="text;whiteSpace=wrap;" vertex="1" parent="1">
          <mxGeometry x="60" y="40" width="200" height="40" as="geometry" />
        </mxCell>
        <mxCell id="v7MBlFbX5arqdHuUOubt-2" value="Sun 12 Jan 20:59:53" style="text;whiteSpace=wrap;" vertex="1" parent="1">
          <mxGeometry x="60" y="55" width="200" height="25" as="geometry" />
        </mxCell>
        <mxCell id="v7MBlFbX5arqdHuUOubt-5" style="edgeStyle=orthogonalEdgeStyle;rounded=0;orthogonalLoop=1;jettySize=auto;html=1;" edge="1" parent="1" source="v7MBlFbX5arqdHuUOubt-3" target="v7MBlFbX5arqdHuUOubt-4">
          <mxGeometry relative="1" as="geometry" />
        </mxCell>
        <UserObject label="Please enter your name &gt;&gt;&gt; John Doe&#xa;Enter your phone number &gt;&gt;&gt; 08123456789&#xa;Enter your email address &gt;&gt;&gt; john.doe@example.com&#xa;Select room type (1, 2 or 3):&#xa;    1. Single&#xa;    2. Double&#xa;    3. Suite&#xa;&gt;&gt;&gt; 2&#xa;Enter number of nights &gt;&gt;&gt; 3" id="v7MBlFbX5arqdHuUOubt-3">
          <mxCell style="text;whiteSpace=wrap;" vertex="1" parent="1">
            <mxGeometry x="60" y="90" width="300" height="190" as="geometry" />
          </mxCell>
        </UserObject>
        <UserObject label="Booking Successful!&#xa;&#xa;Guest Details:&#xa;    Name: John Doe&#xa;    Phone: 08123456789&#xa;    Email: john.doe@example.com&#xa;&#xa;Room Details:&#xa;    Room Number: 101&#xa;    Type: Single&#xa;    Price per Night: ₦10,000&#xa;    Total Payment: ₦30,000&#xa;    Booking Reference Number: RES1234&#xa;    Your check-in date is 10th January, and check-out date is 13th January." id="v7MBlFbX5arqdHuUOubt-4">
          <mxCell style="text;whiteSpace=wrap;fontStyle=0" vertex="1" parent="1">
            <mxGeometry x="400" y="50" width="410" height="230" as="geometry" />
          </mxCell>
        </UserObject>
        <mxCell id="v7MBlFbX5arqdHuUOubt-8" value="" style="edgeStyle=orthogonalEdgeStyle;rounded=0;orthogonalLoop=1;jettySize=auto;html=1;" edge="1" parent="1" source="v7MBlFbX5arqdHuUOubt-6" target="v7MBlFbX5arqdHuUOubt-7">
          <mxGeometry relative="1" as="geometry" />
        </mxCell>
        <mxCell id="v7MBlFbX5arqdHuUOubt-6" value="Enter your booking reference number:&#xa;NCI1234" style="text;whiteSpace=wrap;" vertex="1" parent="1">
          <mxGeometry x="40" y="350" width="240" height="50" as="geometry" />
        </mxCell>
        <mxCell id="v7MBlFbX5arqdHuUOubt-7" value="Reservation canceled successfully.&#xa;Room Number 101 is now available." style="whiteSpace=wrap;html=1;" vertex="1" parent="1">
          <mxGeometry x="420" y="345" width="230" height="60" as="geometry" />
        </mxCell>
        <mxCell id="v7MBlFbX5arqdHuUOubt-11" value="" style="edgeStyle=orthogonalEdgeStyle;rounded=0;orthogonalLoop=1;jettySize=auto;html=1;" edge="1" parent="1" source="v7MBlFbX5arqdHuUOubt-9" target="v7MBlFbX5arqdHuUOubt-10">
          <mxGeometry relative="1" as="geometry" />
        </mxCell>
        <mxCell id="v7MBlFbX5arqdHuUOubt-9" value="View available rooms" style="text;whiteSpace=wrap;" vertex="1" parent="1">
          <mxGeometry x="40" y="450" width="150" height="40" as="geometry" />
        </mxCell>
        <mxCell id="v7MBlFbX5arqdHuUOubt-10" value="Available Rooms:&#xa;Room Number: 102 | Type: Single | Price: ₦10,000&#xa;Room Number: 203 | Type: Double | Price: ₦15,000&#xa;Room Number: 301 | Type: Suite | Price: ₦25,000" style="whiteSpace=wrap;html=1;" vertex="1" parent="1">
          <mxGeometry x="285" y="440" width="395" height="80" as="geometry" />
        </mxCell>
        <mxCell id="v7MBlFbX5arqdHuUOubt-14" value="" style="edgeStyle=orthogonalEdgeStyle;rounded=0;orthogonalLoop=1;jettySize=auto;html=1;" edge="1" parent="1" source="v7MBlFbX5arqdHuUOubt-12" target="v7MBlFbX5arqdHuUOubt-13">
          <mxGeometry relative="1" as="geometry" />
        </mxCell>
        <mxCell id="v7MBlFbX5arqdHuUOubt-12" value="Enter room type (Single/Double/Suite): Suite&#xa;Enter number of nights: 2&#xa;Is this a festive period? (Yes/No): Yes" style="text;whiteSpace=wrap;" vertex="1" parent="1">
          <mxGeometry x="30" y="530" width="270" height="70" as="geometry" />
        </mxCell>
        <mxCell id="v7MBlFbX5arqdHuUOubt-13" value="Room Type: Suite&#xa;Price per Night: ₦25,000&#xa;Festive Period Surcharge: 20%&#xa;Total Payment: ₦60,000" style="whiteSpace=wrap;html=1;" vertex="1" parent="1">
          <mxGeometry x="340" y="535" width="270" height="60" as="geometry" />
        </mxCell>
      </root>
    </mxGraphModel>
  </diagram>
</mxfile>
